<svg width="13" height="16" viewBox="0 0 13 16" fill="none" xmlns="http://www.w3.org/2000/svg">
<path d="M12.2839 6.6448C12.2839 11.0127 6.66808 14.7566 6.66808 14.7566C6.66808 14.7566 1.05225 11.0127 1.05225 6.6448C1.05225 5.15539 1.64391 3.72698 2.69709 2.6738C3.75026 1.62063 5.17867 1.02896 6.66808 1.02896C8.1575 1.02896 9.5859 1.62063 10.6391 2.6738C11.6923 3.72698 12.2839 5.15539 12.2839 6.6448Z" fill="white" stroke="#083258" stroke-linecap="round" stroke-linejoin="round"/>
<path d="M6.66784 8.51675C7.70169 8.51675 8.53979 7.67865 8.53979 6.6448C8.53979 5.61096 7.70169 4.77286 6.66784 4.77286C5.634 4.77286 4.7959 5.61096 4.7959 6.6448C4.7959 7.67865 5.634 8.51675 6.66784 8.51675Z" fill="white" stroke="#083258" stroke-linecap="round" stroke-linejoin="round"/>
</svg>
