<svg width="25" height="25" viewBox="0 0 25 25" fill="none" xmlns="http://www.w3.org/2000/svg">
<path d="M18.4741 8.336C18.4741 6.7447 17.842 5.21858 16.7168 4.09336C15.5915 2.96814 14.0654 2.336 12.4741 2.336C10.8828 2.336 9.3567 2.96814 8.23148 4.09336C7.10626 5.21858 6.47412 6.7447 6.47412 8.336C6.47412 15.336 3.47412 17.336 3.47412 17.336H21.4741C21.4741 17.336 18.4741 15.336 18.4741 8.336Z" fill="#083258" stroke="#083258" stroke-width="1.5" stroke-linecap="round" stroke-linejoin="round"/>
<path d="M14.2041 21.336C14.0283 21.6391 13.776 21.8906 13.4724 22.0655C13.1687 22.2404 12.8245 22.3325 12.4741 22.3325C12.1238 22.3325 11.7795 22.2404 11.4759 22.0655C11.1723 21.8906 10.92 21.6391 10.7441 21.336" stroke="#083258" stroke-width="1.5" stroke-linecap="round" stroke-linejoin="round"/>
</svg>
