<svg width="13" height="12" viewBox="0 0 13 12" fill="none" xmlns="http://www.w3.org/2000/svg">
<path d="M11.9847 1.27113C11.671 0.957273 11.2985 0.708297 10.8886 0.538428C10.4786 0.36856 10.0392 0.281128 9.59544 0.281128C9.15167 0.281128 8.71226 0.36856 8.3023 0.538428C7.89233 0.708297 7.51986 0.957273 7.20614 1.27113L6.55507 1.9222L5.90401 1.27113C5.27033 0.637454 4.41087 0.281456 3.51471 0.281456C2.61855 0.281456 1.7591 0.637454 1.12542 1.27113C0.49174 1.90481 0.135742 2.76427 0.135742 3.66043C0.135742 4.55659 0.49174 5.41604 1.12542 6.04972L1.77649 6.70079L6.55507 11.4794L11.3337 6.70079L11.9847 6.04972C12.2986 5.73601 12.5476 5.36353 12.7174 4.95357C12.8873 4.5436 12.9747 4.10419 12.9747 3.66043C12.9747 3.21667 12.8873 2.77725 12.7174 2.36729C12.5476 1.95733 12.2986 1.58485 11.9847 1.27113Z" fill="#E23C3C"/>
</svg>
