<svg width="15" height="13" viewBox="0 0 15 13" fill="none" xmlns="http://www.w3.org/2000/svg">
<path d="M12.9847 2.10176C12.671 1.7879 12.2985 1.53892 11.8886 1.36906C11.4786 1.19919 11.0392 1.11176 10.5954 1.11176C10.1517 1.11176 9.71226 1.19919 9.3023 1.36906C8.89233 1.53892 8.51986 1.7879 8.20614 2.10176L7.55507 2.75283L6.90401 2.10176C6.27033 1.46808 5.41087 1.11208 4.51471 1.11208C3.61855 1.11208 2.7591 1.46808 2.12542 2.10176C1.49174 2.73544 1.13574 3.5949 1.13574 4.49106C1.13574 5.38721 1.49174 6.24667 2.12542 6.88035L2.77649 7.53142L7.55507 12.31L12.3337 7.53142L12.9847 6.88035C13.2986 6.56664 13.5476 6.19416 13.7174 5.7842C13.8873 5.37423 13.9747 4.93482 13.9747 4.49106C13.9747 4.04729 13.8873 3.60788 13.7174 3.19792C13.5476 2.78795 13.2986 2.41548 12.9847 2.10176Z" stroke="#083258" stroke-width="0.5" stroke-linecap="round" stroke-linejoin="round"/>
</svg>
