<svg width="119" height="21" viewBox="0 0 119 21" fill="none" xmlns="http://www.w3.org/2000/svg">
<path d="M20.3195 20.4398H16.5195L16.4945 9.93982L11.3445 18.5898H9.51953L4.39453 10.1648V20.4398H0.594531V2.93982H3.94453L10.4945 13.8148L16.9445 2.93982H20.2695L20.3195 20.4398ZM37.3715 13.7648C37.3715 14.0648 37.3215 14.4898 37.2965 14.8148H27.1215C27.4965 16.4898 28.9215 17.5148 30.9715 17.5148C32.3965 17.5148 33.4215 17.0898 34.3465 16.2148L36.4215 18.4648C35.1715 19.8898 33.2965 20.6398 30.8715 20.6398C26.2215 20.6398 23.1965 17.7148 23.1965 13.7148C23.1965 9.68982 26.2715 6.78982 30.3715 6.78982C34.3215 6.78982 37.3715 9.43982 37.3715 13.7648ZM30.3965 9.73982C28.6215 9.73982 27.3465 10.8148 27.0715 12.5398H33.6965C33.4215 10.8398 32.1465 9.73982 30.3965 9.73982ZM53.143 13.7648C53.143 14.0648 53.093 14.4898 53.068 14.8148H42.893C43.268 16.4898 44.693 17.5148 46.743 17.5148C48.168 17.5148 49.193 17.0898 50.118 16.2148L52.193 18.4648C50.943 19.8898 49.068 20.6398 46.643 20.6398C41.993 20.6398 38.968 17.7148 38.968 13.7148C38.968 9.68982 42.043 6.78982 46.143 6.78982C50.093 6.78982 53.143 9.43982 53.143 13.7648ZM46.168 9.73982C44.393 9.73982 43.118 10.8148 42.843 12.5398H49.468C49.193 10.8398 47.918 9.73982 46.168 9.73982ZM63.3645 17.0398L64.4145 19.7898C63.6145 20.3648 62.4395 20.6398 61.2395 20.6398C58.0645 20.6398 56.2145 19.0148 56.2145 15.8148V10.2898H54.1395V7.28982H56.2145V4.01482H60.1145V7.28982H63.4645V10.2898H60.1145V15.7648C60.1145 16.9148 60.7395 17.5398 61.7895 17.5398C62.3645 17.5398 62.9395 17.3648 63.3645 17.0398ZM100.294 6.18982H91.1191V10.8148H99.2191V14.0648H91.1191V20.4398H87.0691V2.93982H100.294V6.18982ZM104.467 5.11482C103.017 5.11482 102.042 4.16482 102.042 2.93982C102.042 1.71482 103.017 0.764818 104.467 0.764818C105.917 0.764818 106.892 1.66482 106.892 2.86482C106.892 4.16482 105.917 5.11482 104.467 5.11482ZM102.517 20.4398V6.98982H106.417V20.4398H102.517ZM117.661 17.0398L118.711 19.7898C117.911 20.3648 116.736 20.6398 115.536 20.6398C112.361 20.6398 110.511 19.0148 110.511 15.8148V10.2898H108.436V7.28982H110.511V4.01482H114.411V7.28982H117.761V10.2898H114.411V15.7648C114.411 16.9148 115.036 17.5398 116.086 17.5398C116.661 17.5398 117.236 17.3648 117.661 17.0398Z" fill="#FAFAFA"/>
<path d="M78.9287 2.93982H82.9287V20.4398H79.6037L70.8787 9.81482V20.4398H66.8787V2.93982H70.2287L78.9287 13.5648V2.93982Z" fill="#FF7D00"/>
</svg>
