<svg width="20" height="21" viewBox="0 0 20 21" fill="inherit" xmlns="http://www.w3.org/2000/svg">
<path d="M6.29 11.2101C5.30961 10.4388 4.59401 9.38105 4.24276 8.18407C3.89152 6.98709 3.92208 5.71039 4.33022 4.53159C4.73835 3.35279 5.50375 2.33052 6.51993 1.60698C7.53612 0.883444 8.75255 0.494629 10 0.494629C11.2475 0.494629 12.4639 0.883444 13.4801 1.60698C14.4963 2.33052 15.2617 3.35279 15.6698 4.53159C16.0779 5.71039 16.1085 6.98709 15.7572 8.18407C15.406 9.38105 14.6904 10.4388 13.71 11.2101C15.3899 11.8832 16.8557 12.9995 17.9511 14.44C19.0465 15.8806 19.7304 17.5914 19.93 19.3901C19.9444 19.5214 19.9329 19.6543 19.896 19.7812C19.8591 19.908 19.7975 20.0264 19.7149 20.1294C19.548 20.3376 19.3052 20.471 19.04 20.5001C18.7748 20.5293 18.5088 20.4519 18.3007 20.285C18.0925 20.1181 17.9592 19.8753 17.93 19.6101C17.7104 17.6553 16.7783 15.8499 15.3118 14.5389C13.8453 13.2279 11.9471 12.5032 9.98 12.5032C8.0129 12.5032 6.11476 13.2279 4.64822 14.5389C3.18169 15.8499 2.24959 17.6553 2.03 19.6101C2.00282 19.8558 1.88557 20.0828 1.7009 20.2471C1.51623 20.4115 1.27722 20.5016 1.03 20.5001H0.920004C0.657867 20.47 0.418278 20.3374 0.253443 20.1314C0.0886078 19.9253 0.0118885 19.6625 0.0400047 19.4001C0.240511 17.5963 0.928129 15.8811 2.02915 14.4383C3.13018 12.9955 4.60309 11.8796 6.29 11.2101ZM10 10.5001C10.7911 10.5001 11.5645 10.2655 12.2223 9.826C12.8801 9.38648 13.3928 8.76176 13.6955 8.03086C13.9983 7.29995 14.0775 6.49569 13.9231 5.71976C13.7688 4.94384 13.3878 4.23111 12.8284 3.6717C12.269 3.11229 11.5563 2.73132 10.7804 2.57698C10.0044 2.42264 9.20017 2.50186 8.46927 2.80461C7.73836 3.10736 7.11365 3.62005 6.67412 4.27784C6.2346 4.93564 6 5.709 6 6.50012C6 7.56099 6.42143 8.57841 7.17158 9.32855C7.92172 10.0787 8.93914 10.5001 10 10.5001Z" fill="#D1D5DB" />
</svg>
