<svg width="16" height="16" viewBox="0 0 16 16" fill="none" xmlns="http://www.w3.org/2000/svg">
<circle cx="8.06982" cy="7.87744" r="7.5" fill="#FF7D00"/>
<path d="M10.4292 3.59717V5.14591C10.4292 5.35718 10.3724 5.56373 10.2658 5.73952L8.75422 7.28414C8.53635 7.64361 8.53635 8.1119 8.75422 8.47137L10.2658 10.016C10.3724 10.1918 10.4292 10.3983 10.4292 10.6096V12.1583" stroke="white" stroke-linecap="round" stroke-linejoin="round"/>
<path d="M4.59229 12.1582H5.56515H10.4294H11.4023" stroke="white" stroke-linecap="round" stroke-linejoin="round"/>
<path d="M4.59229 3.59717H5.56515H10.4294H11.4023" stroke="white" stroke-linecap="round" stroke-linejoin="round"/>
<path d="M6.06467 12.1582L6.06467 10.6095C6.06467 10.3982 6.12722 10.1916 6.2444 10.0158L7.90717 8.47123C8.14683 8.11176 8.14683 7.64347 7.90717 7.28401L6.2444 5.73936C6.12722 5.56358 6.06467 5.35705 6.06467 5.14574L6.06467 3.59703" stroke="white" stroke-linecap="round" stroke-linejoin="round"/>
</svg>
